<?xml version="1.0" standalone="no"?><!DOCTYPE svg PUBLIC "-//W3C//DTD SVG 1.1//EN" "http://www.w3.org/Graphics/SVG/1.1/DTD/svg11.dtd"><svg t="1568018124595" class="icon" viewBox="0 0 1129 1024" version="1.1" xmlns="http://www.w3.org/2000/svg" p-id="978" width="141.125" height="128" xmlns:xlink="http://www.w3.org/1999/xlink"><defs><style type="text/css"></style></defs><path d="M967.535284 959.083689h-77.335084V571.279289c0-178.378734-145.638333-323.452578-325.710536-323.452577-180.072203 0-325.710536 144.509354-325.710536 323.452577v387.8044h-76.206105c-18.063669 0-32.740401 14.676731-32.7404 32.17591 0 18.063669 14.676731 32.175911 32.7404 32.175911h803.268792c18.063669 0.56449 32.740401-14.112242 32.740401-31.611421s-12.983262-32.175911-31.046932-32.7404z m-142.251395 0h-521.02396v-366.353792c5.080407-189.104037 119.107319-277.728915 263.052183-277.728915s255.149328 92.576305 258.536267 277.728915v366.353792z" fill="#3e3e3e" p-id="979"></path><path d="M968.099774 171.056117c-12.983262-12.983262-33.86938-12.983262-46.852642 0l-104.430588 103.301609c16.93469 14.112242 32.175911 29.353463 46.852642 45.723663l104.430588-103.301609c12.418773-12.418773 12.418773-32.740401 0-45.723663zM565.054154 0.015749c-18.063669 0-32.740401 14.676731-32.740401 32.175911v152.412209c10.725304-1.128979 21.450607-1.693469 32.175911-1.693469 11.289793 0 22.015097 0.56449 32.740401 1.693469v-152.412209c0-18.063669-14.112242-32.740401-32.175911-32.175911zM165.395472 164.282242c-12.418773 12.418773-12.983262 32.740401 0 45.723662l105.559567 104.995078c14.112242-16.3702 29.917952-31.046932 46.852642-44.594684l-106.124057-105.559567c-12.983262-13.547752-33.30489-13.547752-46.288152-0.564489zM1096.803417 527.813585h-143.380374c1.693469 13.547752 2.257959 27.095504 2.257958 40.643256v24.273056h141.122416c18.063669 0 32.740401-14.676731 32.740401-32.175911-0.56449-18.063669-15.241221-32.740401-32.740401-32.740401zM0 560.553986c0 18.063669 14.676731 32.175911 32.740401 32.175911h141.122416v-24.273056c0-13.547752 0.56449-27.095504 2.257958-40.643256h-143.380374c-18.063669 0-32.740401 14.676731-32.740401 32.740401zM662.710866 570.7148h-117.41385l70.561208-70.561208c12.418773-12.418773 12.983262-32.740401 0-45.723663-12.983262-12.418773-33.30489-12.418773-46.288153 0l-123.058747 121.929767c-12.418773 12.418773-12.983262 32.740401 0 45.723663 6.209386 6.209386 14.676731 9.031835 23.144077 9.031835h117.41385l-70.561208 70.561208c-12.418773 12.418773-12.983262 32.740401 0 45.723663 12.983262 12.418773 33.30489 12.418773 46.288152 0l123.058747-121.929768c12.418773-12.418773 12.983262-32.740401 0-45.723663-5.644897-5.644897-14.112242-9.031835-23.144076-9.031834z" fill="#3e3e3e" p-id="980"></path><path d="M437.47949 424.511977l-24.273056 33.86938c-1.693469 2.822448-5.644897 3.386938-8.467345 1.128979l-0.564489-0.56449c-2.822448-1.693469-3.386938-5.644897-1.12898-8.467345l24.273056-33.86938c1.693469-2.822448 5.644897-3.386938 8.467345-1.128979l0.564489 0.56449c2.822448 1.693469 3.386938 5.644897 1.12898 8.467345zM473.042339 424.511977l-35.562849 49.67509c-1.693469 2.822448-5.644897 3.386938-8.467345 1.128979l-0.56449-0.564489c-2.822448-1.693469-3.386938-5.644897-1.128979-8.467345l35.562849-49.675091c1.693469-2.822448 5.644897-3.386938 8.467345-1.128979l0.564489 0.56449c2.822448 1.693469 3.386938 5.644897 1.12898 8.467345z" fill="#3e3e3e" p-id="981"></path></svg>