<?xml version="1.0" standalone="no"?><!DOCTYPE svg PUBLIC "-//W3C//DTD SVG 1.1//EN" "http://www.w3.org/Graphics/SVG/1.1/DTD/svg11.dtd"><svg t="1561082932751" class="icon" viewBox="0 0 1024 1024" version="1.1" xmlns="http://www.w3.org/2000/svg" p-id="3706" width="32" height="32" xmlns:xlink="http://www.w3.org/1999/xlink"><defs><style type="text/css"></style></defs><path d="M979.2 888h0.7-0.7zM982 888h-0.1-0.1 0.2zM992.6 293.4a27.3 27.3 0 0 0-27.1 0c-8.4 4.8-13.5 13.8-13.5 23.4v484.7C833 698 655.1 698 535.6 801.5l-28.4 24.8-28.5-24.8C359.1 698 182 698 62 801.5V316.8c0-15-12-27.1-27-27.1S8 301.8 8 316.8v546c0 10.7 6.3 20.4 16 24.8 9.8 4.4 21.2 2.6 29.2-4.5l49.7-42c99.1-85.9 246.2-85.9 345.2 0l45.1 40.2c10.2 8.9 25.4 8.9 35.7 0l45.1-40.2c99.1-85.9 246.2-85.9 345.2 0l45.1 40.2c4.3 3.8 9.7 6.1 15.4 6.6h1.2c0.3 0 0.6 0 0.9 0.1 6.2-0.6 12-3.3 16.4-7.8 5.1-5.1 7.8-12 7.8-19.1V316.8c0-9.6-5-18.6-13.4-23.4z" p-id="3707" fill="#ffffff"></path><path d="M980.9 888.1c0.3 0 0.6-0.1 0.8-0.1h-1.8c0.4 0 0.7 0.1 1 0.1zM139.7 718c11.5 5.2 25 3.1 34.3-5.4l34.8-30.2c70.1-60.7 174.1-60.7 244.2 0l34.4 29.9c2.4 2.1 5.1 3.9 8.1 5.3 4.1 1.8 8.6 2.8 13.1 2.7 4.7 0 9.3-1.1 13.5-3.2 4.8-2.2 8.8-5.4 11.9-9.4l29.7-25.8c70.1-60.7 174.1-60.7 244.1 0l34.8 30.2c9.3 8.5 22.6 10.6 34.1 5.4 11.5-5.2 18.4-16.7 18.4-29.3V268.5C895 159.5 806.7 71 697.6 71h-23c-69.5 0-130.6 36.1-165.8 90.4C473.5 107 412.2 71 342.5 71h-23C210.2 71 122 159.3 121 268.5v420.1c0 12.7 7.3 24.2 18.7 29.4zM496 190h22v473h-22V190z" p-id="3708" fill="#ffffff"></path></svg>