<?xml version="1.0" standalone="no"?><!DOCTYPE svg PUBLIC "-//W3C//DTD SVG 1.1//EN" "http://www.w3.org/Graphics/SVG/1.1/DTD/svg11.dtd"><svg t="1566528440121" class="icon" viewBox="0 0 1024 1024" version="1.1" xmlns="http://www.w3.org/2000/svg" p-id="1173" xmlns:xlink="http://www.w3.org/1999/xlink" width="200" height="200"><defs><style type="text/css"></style></defs><path d="M716.66124 307.33876c-22.604834 0-40.932248 18.327414-40.932248 40.932248l0 409.322479c0 90.279143-73.449849 163.728992-163.728992 163.728992s-163.728992-73.449849-163.728992-163.728992l0-552.585347c0-56.422034 45.908586-102.33062 102.33062-102.33062s102.33062 45.908586 102.33062 102.33062l0 470.720851c0 22.564925-18.367323 40.932248-40.932248 40.932248s-40.932248-18.367323-40.932248-40.932248l0-327.457983c0-22.604834-18.327414-40.932248-40.932248-40.932248s-40.932248 18.327414-40.932248 40.932248l0 327.457983c0 67.714218 55.082526 122.796744 122.796744 122.796744s122.796744-55.082526 122.796744-122.796744l0-470.720851c0-101.571327-82.623789-184.195116-184.195116-184.195116s-184.195116 82.623789-184.195116 184.195116l0 552.585347c0 135.428436 110.165052 245.593488 245.593488 245.593488s245.593488-110.165052 245.593488-245.593488l0-409.322479C757.593488 325.666174 739.266074 307.33876 716.66124 307.33876z" p-id="1174"></path></svg>